<svg id="logo" xmlns="http://www.w3.org/2000/svg" width="500.8" height="490.4" viewBox="0 0 500.8 490.4">
  <path id="Path_14" data-name="Path 14" d="M263.3,26.9h-25L211.7,53.2l6.7,60.6h65.7l14.2-57.3Z" transform="translate(-0.6 0.6)" fill="#0ddddd"/>
  <rect id="Rectangle_20" data-name="Rectangle 20" width="121.1" height="70.9" transform="translate(335.1 120.7)" fill="#a4f1f8"/>
  <g id="Group_4" data-name="Group 4" transform="translate(0.4 0.6)">
    <g id="Group_3" data-name="Group 3" transform="translate(-1)">
      <g id="Group_2" data-name="Group 2">
        <path id="Path_15" data-name="Path 15" d="M467.3,192.9V89.8a32.094,32.094,0,0,0-32-32h-80a32.094,32.094,0,0,0-32,32v96h-24V122.2l8.4-75.8L251.3-.6l-56.4,47,8.4,75.8v60.2L94.2,73.4a53.316,53.316,0,0,0-75.4,75.4l37.2,37H45.3L.6,337.8H43.3v152h424v-152h34.1ZM251.3,65.8a8,8,0,1,1-8,8A8.024,8.024,0,0,1,251.3,65.8Zm-8-38.9V51.3a24,24,0,1,0,16,0V26.9l31.6,26.3-6.7,60.6H218.5l-6.7-60.6Zm40,102.9v56h-64v-56Zm-99.3,56H142.6l-40-40,20.7-20.7Zm-64,0H78.6l-8-8,20.7-20.7ZM30.2,137.4A37.265,37.265,0,0,1,82.9,84.7L88,89.8,35.3,142.5Zm16.4,16.4,52.7-52.7L112,113.8,59.3,166.5ZM22,321.8l35.3-120H312.6l-35.3,120Zm293.3,152H59.3v-136h230l26-88.4V473.8Zm24-384a16.047,16.047,0,0,1,16-16h80a16.047,16.047,0,0,1,16,16v16h-112Zm0,32h112v64H422.9a30.969,30.969,0,0,0,4.4-16,32,32,0,1,0-59.6,16H339.3Zm72,48a16,16,0,1,1-16-16A16.047,16.047,0,0,1,411.3,169.8Zm40,304h-120v-211L349,337.9H451.3Zm-89.7-152-28.2-120H453l28.2,120Z"/>
        <rect id="Rectangle_21" data-name="Rectangle 21" width="16" height="16" transform="translate(275.3 441.8)"/>
        <rect id="Rectangle_22" data-name="Rectangle 22" width="16" height="16" transform="translate(243.3 441.8)"/>
        <rect id="Rectangle_23" data-name="Rectangle 23" width="16" height="16" transform="translate(211.3 441.8)"/>
      </g>
    </g>
  </g>
  <rect id="Rectangle_24" data-name="Rectangle 24" width="123.6" height="137.9" transform="translate(329.5 337.6)" fill="#a58855"/>
  <path id="Path_16" data-name="Path 16" d="M330.3,256.7l14.2,59.1,6.2,22H329.1V311.4Z" transform="translate(0.4 0.6)" fill="#a58855"/>
  <rect id="Rectangle_25" data-name="Rectangle 25" width="257.3" height="139.2" transform="translate(58.3 336.3)" fill="#a58855"/>
  <rect id="Rectangle_26" data-name="Rectangle 26" width="220" height="123.6" transform="translate(57.7 200.5)" fill="#cda56d"/>
  <path id="Path_18" data-name="Path 18" d="M18.83,322.811l8.719-27.585L57.4,199.9s12.548,5.425,12.787,3.924c.248-1.625-11.746-8.719-11.654,6.762C58.687,235.635,58,300.1,58,300.1l.3,23.4" transform="matrix(1, -0.017, 0.017, 1, -4.161, 1.318)" fill="#cda56d"/>
  <path id="Path_19" data-name="Path 19" d="M314.2,200.2l-8.6,27.7-28.3,95.6-1.7-100.2-.5-23.4" transform="translate(0.4 0.6)" fill="#cda56d"/>
  <path id="Path_20" data-name="Path 20" d="M486.1,322.5l-125.6,1-28-122.6H454.1Z" transform="translate(0.4 0.6)" fill="#cda56d"/>
  <path id="Path_21" data-name="Path 21" d="M100.5,146.1l39.1,41.7,47.1-1.1L123,123.4Z" transform="translate(0.4 0.6)" fill="#ff0"/>
  <path id="Path_22" data-name="Path 22" d="M78,187.8l-8.9-9.7,22.1-22.5,32.3,31.2Z" transform="translate(0.4 0.6)" fill="#ff0"/>
  <path id="Path_23" data-name="Path 23" d="M33.6,145l56-55L79.5,81.2A32.383,32.383,0,0,0,33.4,81l-8.9,8.9a31.524,31.524,0,0,0-1.2,43.4Z" transform="translate(0.4 -0.4)" fill="#ed7a9d"/>
  <rect id="Rectangle_27" data-name="Rectangle 27" width="74.5" height="17.9" transform="translate(45.966 154.48) rotate(-45)" fill="#0ddddd"/>
  <rect id="Rectangle_28" data-name="Rectangle 28" width="68.1" height="60" transform="translate(217.2 128.3)" fill="#5271ff"/>
  <path id="Path_24" data-name="Path 24" d="M454.464,107.679H339.3V87.924c0-7.777,7.21-14.124,16.046-14.124H437.1c9.546,0,17.366,6.794,17.366,15.286v18.593Z" transform="translate(-1.364 0.6)" fill="#ff66c4"/>
  <path id="Path_25" data-name="Path 25" d="M19.044,4c.117-.689.547.41.547.41s1.21,18.009,1.962,22.427C24.2,42.392,27.79,93.11,27.407,93.11L1.185,94c-.619,0-1.727,1.3-1.623.686Z" transform="matrix(0.996, 0.087, -0.087, 0.996, 296.373, 242.794)" fill="#a58855"/>
</svg>
